{"title":"Ishaqzaade 2012 Xvid 1CD PdvdRip AC3 (TDT) - Hindi Movie","uid":7270464,"size":753380372,"categoryP":"video","categoryS":"movies","magnet":"?xt=urn:btih:38b8dfb6707e58ed4e39443333517358ef645add&amp;dn=Ishaqzaade+2012+Xvid+1CD+PdvdRip+AC3+%28TDT%29+-+Hindi+Movie&amp;tr=udp%3A%2F%2Ftracker.openbittorrent.com%3A80&amp;tr=udp%3A%2F%2Fopen.demonii.com%3A1337&amp;tr=udp%3A%2F%2Ftracker.coppersurfer.tk%3A6969&amp;tr=udp%3A%2F%2Fexodus.desync.com%3A6969","seeders":0,"leechers":1,"uploader":"JonamS","files":3,"time":1337030139,"description":" &lt;a href=&quot;\nhttp://img526.imageshack.us/img526/8782/rrgbannercopy.jpg&quot; rel=&quot;nofollow&quot; target=&quot;_NEW&quot;&gt;\nhttp://img526.imageshack.us/img526/8782/rrgbannercopy.jpg&lt;/a&gt;\n &lt;a href=&quot;\nhttp://desibbrg.org/images/32173275919352631518.jpg&quot; rel=&quot;nofollow&quot; target=&quot;_NEW&quot;&gt;\nhttp://desibbrg.org/images/32173275919352631518.jpg&lt;/a&gt;\n &lt;a href=&quot;\nhttp://desibbrg.org/images/35737553379660607340.png&quot; rel=&quot;nofollow&quot; target=&quot;_NEW&quot;&gt;\nhttp://desibbrg.org/images/35737553379660607340.png&lt;/a&gt;\n &lt;a href=&quot;\nhttp://desibbrg.org/images/44480780924636122641.png&quot; rel=&quot;nofollow&quot; target=&quot;_NEW&quot;&gt;\nhttp://desibbrg.org/images/44480780924636122641.png&lt;/a&gt;\n &lt;a href=&quot;\nhttp://desibbrg.org/images/77898329130129990529.png&quot; rel=&quot;nofollow&quot; target=&quot;_NEW&quot;&gt;\nhttp://desibbrg.org/images/77898329130129990529.png&lt;/a&gt;\n &lt;a href=&quot;\nhttp://desibbrg.org/images/63410222425820662222.png&quot; rel=&quot;nofollow&quot; target=&quot;_NEW&quot;&gt;\nhttp://desibbrg.org/images/63410222425820662222.png&lt;/a&gt;\n &lt;a href=&quot;\nhttp://desibbrg.org/images/93900067360009698587.png&quot; rel=&quot;nofollow&quot; target=&quot;_NEW&quot;&gt;\nhttp://desibbrg.org/images/93900067360009698587.png&lt;/a&gt;\n\nMedia Info - \nGeneral\nComplete name : Ishaqzaade (2012) - Xvid - Pdvd Rip - AC3 - TDT.avi\nIMDB : Ishaqzaade (2012) - IMDb\nFormat : AVI\nFile size : 707 MiB\nDuration : 1h 49mn\nOverall bit rate : 899 Kbps\n\nVideo\nCodec ID : XVID\nDuration : 1h 49mn\nBit rate : 793 Kbps\nWidth : 688 pixels\nHeight : 288 pixels\nDisplay aspect ratio : 2.40:1\nFrame rate : 23.976 fps\nBits/(Pixel*Frame) : 0.167\nStream size : 624 MiB (88%)\n\nAudio\nFormat : AC-3\nDuration : 1h 49mn\nBit rate mode : Constant\nBit rate : 96.0 Kbps\nChannel(s) : 2 channels\nStream size : 75.5 MiB (11%)\n\nRipper : Kingfish3r \n\nSeeding 24x7... Extreme Seeding...\n\n\nEnjoy!\n","torrent":{"xt":"urn:btih:38b8dfb6707e58ed4e39443333517358ef645add","amp;dn":"Ishaqzaade+2012+Xvid+1CD+PdvdRip+AC3+%28TDT%29+-+Hindi+Movie","amp;tr":["udp%3A%2F%2Ftracker.openbittorrent.com%3A80","udp%3A%2F%2Fopen.demonii.com%3A1337","udp%3A%2F%2Ftracker.coppersurfer.tk%3A6969","udp%3A%2F%2Fexodus.desync.com%3A6969"],"infoHash":"38b8dfb6707e58ed4e39443333517358ef645add","infoHashBuffer":{"type":"Buffer","data":[56,184,223,182,112,126,88,237,78,57,68,51,51,81,115,88,239,100,90,221]},"announce":[],"urlList":[]}}